Coordinates
version=1
nRows=6
nColumns=46
inDegrees=yes

Units are S.I. units (second, meters, Newtons, ...)
Angles are in degrees.

endheader
time	pelvis_tilt	pelvis_list	pelvis_rotation	pelvis_tx	pelvis_ty	pelvis_tz	bb_angle	bb_tx	bb_ty	bb_tz	hip_flexion_r	hip_adduction_r	hip_rotation_r	knee_angle_r	knee_angle_r_beta	ankle_angle_r	subtalar_angle_r	mtp_angle_r	crank_angle_r	hip_flexion_l	hip_adduction_l	hip_rotation_l	knee_angle_l	knee_angle_l_beta	ankle_angle_l	subtalar_angle_l	mtp_angle_l	crank_angle_l	lumbar_extension	lumbar_bending	lumbar_rotation	arm_flex_r	arm_add_r	arm_rot_r	elbow_flex_r	pro_sup_r	wrist_flex_r	wrist_dev_r	arm_flex_l	arm_add_l	arm_rot_l	elbow_flex_l	pro_sup_l	wrist_flex_l	wrist_dev_l
      7.50000000	    -28.80112071	     -9.33147713	     -2.34706680	      0.40701496	      1.21850971	     -0.25896224	      0.00000000	      0.50000000	      0.00000000	      0.25000000	     77.67387917	      2.63556522	     -6.14086635	     84.38974061	      1.47287883	     -0.22273746	     -5.94753631	      0.00000000	      0.00000000	     38.93372989	    -15.78470809	     -2.11437899	     48.09184402	      0.83936102	    -16.00029052	     -6.23309329	      0.00000000	      0.00000000	    -67.14531915	     12.32656029	      8.27767106	     72.92354459	    -17.51077165	     40.35536720	     83.39648437	     59.17827067	      0.00000000	      0.00000000	     38.11316744	    -24.23663469	      1.15131986	    100.88216790	     54.22356683	      0.00000000	      0.00000000
      7.50500000	    -29.13553020	     -8.86509415	     -2.33004793	      0.40698128	      1.21956420	     -0.25821212	      0.00000000	      0.50000000	      0.00000000	      0.25000000	     76.69411596	      2.51693361	     -5.91680407	     82.06284562	      1.43226685	      0.74066032	     -5.73429410	      0.00000000	      0.00000000	     40.36407482	    -15.49711172	     -1.77618766	     50.50271512	      0.88143866	    -16.47593699	     -6.30984397	      0.00000000	      0.00000000	    -66.87304407	     12.04259335	      7.99741347	     72.54934469	    -17.44134848	     39.85461339	     83.60730622	     59.08293355	      0.00000000	      0.00000000	     38.51368356	    -24.35302840	      1.12474298	    100.56008088	     54.13406297	      0.00000000	      0.00000000
      7.51000000	    -29.47743985	     -8.37351013	     -2.32080968	      0.40698346	      1.22035564	     -0.25749446	      0.00000000	      0.50000000	      0.00000000	      0.25000000	     75.65136962	      2.41119478	     -5.64892936	     79.63992169	      1.38997885	      1.52955720	     -5.63271323	      0.00000000	      0.00000000	     41.81058256	    -15.16144735	     -1.39821777	     52.90905804	      0.92343727	    -16.87100951	     -6.20761551	      0.00000000	      0.00000000	    -66.53678196	     11.70663522	      7.66805606	     72.03910409	    -17.42416234	     39.33208473	     83.79443788	     59.00263751	      0.00000000	      0.00000000	     38.92959887	    -24.36029538	      1.20813773	    100.17874674	     54.05785156	      0.00000000	      0.00000000
      7.51500000	    -29.87991542	     -7.91930892	     -2.29738694	      0.40695188	      1.22067474	     -0.25672099	      0.00000000	      0.50000000	      0.00000000	      0.25000000	     74.63260476	      2.27846599	     -5.47734800	     77.12880200	      1.34615154	      2.03211020	     -5.54351390	      0.00000000	      0.00000000	     43.38536387	    -14.85364525	     -0.96275519	     55.37011879	      0.96639088	    -17.13068221	     -5.68409218	      0.00000000	      0.00000000	    -66.02728072	     11.35895258	      7.52266406	     71.10070520	    -17.44781326	     38.23693659	     84.19876367	     58.90562456	      0.00000000	      0.00000000	     39.42725500	    -24.11592349	      1.68807396	     99.39971624	     53.98108310	      0.00000000	      0.00000000
      7.52000000	    -29.93359222	     -7.02846961	     -2.24492355	      0.40749160	      1.22172966	     -0.25600726	      0.00000000	      0.50000000	      0.00000000	      0.25000000	     73.19375514	      1.89200789	     -4.98541961	     74.57531173	      1.30158473	      2.31498277	     -5.52842201	      0.00000000	      0.00000000	     44.32386911	    -14.14119774	     -0.94161687	     57.47924567	      1.00320209	    -17.49719453	     -5.56255347	      0.00000000	      0.00000000	    -65.82872165	     10.76041382	      6.71453208	     70.82428377	    -17.54431205	     38.06128609	     84.27726661	     58.87146142	      0.00000000	      0.00000000	     39.59367038	    -24.01041477	      1.80055903	     99.26005513	     53.95533409	      0.00000000	      0.00000000
      7.52500000	    -30.27401451	     -6.62540158	     -2.10420849	      0.40752346	      1.22154807	     -0.25484132	      0.00000000	      0.50000000	      0.00000000	      0.25000000	     72.00503058	      1.74053756	     -4.92608122	     71.92436216	      1.25531693	      2.51459341	     -5.79064140	      0.00000000	      0.00000000	     45.98795913	    -13.92442061	     -0.60379232	     60.05040895	      1.04807735	    -17.77075190	     -5.27396200	      0.00000000	      0.00000000	    -65.23308049	     10.17558453	      7.62792413	     67.99906171	    -18.63846441	     34.71511108	     86.71651018	     58.83781356	      0.00000000	      0.00000000	     41.89069241	    -22.96260046	      4.26128156	     97.06306159	     53.94702968	      0.00000000	      0.00000000
